<?xml version="1.0" encoding="UTF-8" standalone="no"?><!-- Generator: Gravit.io --><svg xmlns="http://www.w3.org/2000/svg" xmlns:xlink="http://www.w3.org/1999/xlink" style="isolation:isolate" viewBox="0 0 128 128" width="128pt" height="128pt"><defs><clipPath id="_clipPath_ojMqJMzLbgoiidDV8BCpZEb1DyuxCbOV"><rect width="128" height="128"/></clipPath></defs><g clip-path="url(#_clipPath_ojMqJMzLbgoiidDV8BCpZEb1DyuxCbOV)"><rect width="128" height="128" style="fill:rgb(251,50,94)"/><path d=" M 84.964 66.828 C 84.964 65.979 85.252 64.848 85.252 64 C 85.252 63.152 85.252 62.021 84.964 61.172 L 90.908 56.931 C 91.473 56.642 91.756 55.805 91.196 54.951 L 85.54 45.054 C 85.252 44.206 84.401 43.92 83.838 44.206 L 77.057 47.322 C 75.643 46.182 73.653 45.057 71.964 44.494 L 71.113 37.136 C 71.113 36.288 70.548 35.722 69.699 35.722 L 58.388 35.722 C 57.54 35.722 56.974 36.288 56.974 37.136 L 56.126 44.206 C 54.147 45.054 52.444 45.908 51.03 47.033 L 44.249 44.206 C 43.684 43.917 42.836 44.206 42.547 44.771 L 36.892 54.668 C 36.329 55.517 36.329 56.365 37.18 56.642 L 43.124 61.172 C 43.124 62.021 42.836 63.152 42.836 64 C 42.836 64.848 42.836 65.979 43.124 66.828 L 37.18 71.069 C 36.614 71.358 36.332 72.195 36.892 73.049 L 42.547 82.946 C 42.836 83.794 43.687 84.083 44.249 83.794 L 51.03 80.678 C 52.444 81.818 54.435 82.943 56.123 83.506 L 56.974 90.864 C 56.974 91.712 57.54 92.278 58.388 92.278 L 69.699 92.278 C 70.548 92.278 71.113 91.712 71.113 90.864 L 71.962 83.506 C 73.941 82.669 75.643 81.818 77.057 80.678 L 83.838 83.794 C 84.404 84.083 85.252 83.794 85.54 83.229 L 91.196 73.332 C 91.47 72.772 91.47 71.918 90.908 71.358 L 84.964 66.828 Z  M 64.044 75.311 C 57.823 75.311 52.733 70.221 52.733 64 C 52.733 57.779 57.823 52.689 64.044 52.689 C 70.265 52.689 75.355 57.779 75.355 64 C 75.355 70.221 70.265 75.311 64.044 75.311 Z " fill="rgb(255,255,255)"/></g></svg>